<svg width="294" height="87" viewBox="0 0 294 87" fill="none" xmlns="http://www.w3.org/2000/svg">
<path d="M77.2188 41.7734C77.2188 43.9453 76.8438 45.9141 76.0938 47.6797C75.3281 49.4297 74.2969 50.9922 73 52.3672C71.7188 53.7266 70.2188 54.8906 68.5 55.8594C67.6406 56.3438 66.7578 56.7891 65.8516 57.1953C64.9453 57.6016 64.0156 57.9609 63.0625 58.2734C61.1562 58.8984 59.2109 59.3594 57.2266 59.6562C55.2422 59.9531 53.3281 60.1016 51.4844 60.1016C50.8594 60.1016 50.2422 60.0859 49.6328 60.0547C49.0234 60.0234 48.4453 59.9609 47.8984 59.8672L46.9844 25.0625C49.4219 24.875 51.6484 24.7812 53.6641 24.7812C54.5391 24.7812 55.4219 24.7969 56.3125 24.8281C57.2031 24.8594 58.1094 24.9062 59.0312 24.9688C60.875 25.1094 62.6641 25.3906 64.3984 25.8125C66.1484 26.2188 67.8047 26.8047 69.3672 27.5703C70.9141 28.3359 72.2734 29.3438 73.4453 30.5938C74.6016 31.8594 75.5156 33.4062 76.1875 35.2344C76.875 37.0625 77.2188 39.2422 77.2188 41.7734ZM72.8125 41.5391C72.7656 40.0391 72.5078 38.6641 72.0391 37.4141C71.5703 36.1953 70.9297 35.1172 70.1172 34.1797C69.3203 33.2266 68.3828 32.4141 67.3047 31.7422C66.7734 31.3984 66.2109 31.0938 65.6172 30.8281C65.0391 30.5469 64.4375 30.2969 63.8125 30.0781C62.5625 29.6406 61.25 29.3203 59.875 29.1172C58.5 28.9141 57.1172 28.8125 55.7266 28.8125C55.1328 28.8125 54.5 28.8359 53.8281 28.8828C53.1719 28.9141 52.4922 28.9688 51.7891 29.0469L52.5156 55.5547C52.6406 55.5703 52.7734 55.5859 52.9141 55.6016C53.0547 55.6016 53.1953 55.6016 53.3359 55.6016H54.1328C55.6953 55.6016 57.25 55.4609 58.7969 55.1797C61.9688 54.6016 64.7344 53.5078 67.0938 51.8984C68.2656 51.1172 69.2891 50.1953 70.1641 49.1328C71.0234 48.1016 71.6875 46.9531 72.1562 45.6875C72.6406 44.4062 72.8594 43.0234 72.8125 41.5391ZM106.164 47.6328C106.164 49.6016 105.836 51.4219 105.18 53.0938C104.523 54.7656 103.625 56.2188 102.484 57.4531C101.344 58.6875 100.008 59.6484 98.4766 60.3359C96.9453 61.0391 95.3125 61.3906 93.5781 61.3906C90.0312 61.3906 87.0859 60.125 84.7422 57.5938C83.6016 56.3906 82.7031 54.9453 82.0469 53.2578C81.3906 51.5703 81.0625 49.6953 81.0625 47.6328C81.0625 45.5547 81.3906 43.6719 82.0469 41.9844C82.7031 40.2812 83.6016 38.8281 84.7422 37.625C85.8672 36.4219 87.1875 35.4922 88.7031 34.8359C90.2188 34.1797 91.8438 33.8516 93.5781 33.8516C95.3125 33.8516 96.9453 34.2031 98.4766 34.9062C100.008 35.5938 101.344 36.5469 102.484 37.7656C103.625 39 104.523 40.4609 105.18 42.1484C105.836 43.8203 106.164 45.6484 106.164 47.6328ZM101.219 47.5859C101.219 46.4609 101.078 45.3203 100.797 44.1641C100.516 43.0078 100.07 41.9766 99.4609 41.0703C98.8516 40.1484 98.0625 39.4062 97.0938 38.8438C96.125 38.2656 94.9531 37.9766 93.5781 37.9766C92.25 37.9766 91.1094 38.2656 90.1562 38.8438C89.2031 39.4062 88.4219 40.1484 87.8125 41.0703C87.2031 41.9766 86.7578 43.0078 86.4766 44.1641C86.1953 45.3203 86.0547 46.4609 86.0547 47.5859C86.0547 48.7109 86.2031 49.8438 86.5 50.9844C86.8125 52.1094 87.2812 53.1328 87.9062 54.0547C88.5312 54.9609 89.3125 55.7109 90.25 56.3047C91.2031 56.8828 92.3125 57.1719 93.5781 57.1719C94.9062 57.1719 96.0469 56.8828 97 56.3047C97.9688 55.7109 98.7656 54.9609 99.3906 54.0547C100.016 53.1328 100.477 52.1094 100.773 50.9844C101.07 49.8438 101.219 48.7109 101.219 47.5859ZM135.672 41.3281L135.719 41.4219L131.828 43.7891L131.781 43.6484C130.969 42.0547 129.828 40.8047 128.359 39.8984C126.891 38.9766 125.266 38.5156 123.484 38.5156C122.203 38.5156 121 38.7578 119.875 39.2422C118.766 39.7266 117.797 40.3906 116.969 41.2344C116.125 42.0781 115.461 43.0703 114.977 44.2109C114.492 45.3359 114.25 46.5391 114.25 47.8203C114.25 49.0859 114.492 50.2812 114.977 51.4062C115.461 52.5312 116.125 53.5156 116.969 54.3594C117.797 55.2031 118.766 55.8672 119.875 56.3516C121 56.8359 122.203 57.0781 123.484 57.0781C125.109 57.0781 126.648 56.6562 128.102 55.8125C129.555 54.9688 130.688 53.8516 131.5 52.4609L131.594 52.3203L135.672 54.6406L135.625 54.7812C135.016 55.7969 134.273 56.7109 133.398 57.5234C132.539 58.3359 131.578 59.0391 130.516 59.6328C128.344 60.8359 126 61.4375 123.484 61.4375C121.719 61.4375 120.016 61.0938 118.375 60.4062C116.734 59.7188 115.266 58.7656 113.969 57.5469C112.688 56.3281 111.656 54.8906 110.875 53.2344C110.094 51.5781 109.703 49.7734 109.703 47.8203C109.703 46.6484 109.867 45.4922 110.195 44.3516C110.852 42.0391 112.016 40.0312 113.688 38.3281C114.094 37.8906 114.531 37.4922 115 37.1328C115.469 36.7578 115.953 36.4141 116.453 36.1016C117.469 35.4922 118.57 35.0156 119.758 34.6719C120.945 34.3125 122.188 34.1328 123.484 34.1328C126.172 34.1328 128.602 34.7656 130.773 36.0312C132.914 37.2969 134.547 39.0625 135.672 41.3281ZM170.594 37.9297C170.516 39.4453 170.219 40.7734 169.703 41.9141C169.172 43.1016 168.461 44.1484 167.57 45.0547C166.68 45.9609 165.656 46.7344 164.5 47.375C163.312 48.0312 162.086 48.5547 160.82 48.9453C159.508 49.3672 158.156 49.6797 156.766 49.8828C155.375 50.0703 154.016 50.1641 152.688 50.1641C151.812 50.1641 150.836 50.1328 149.758 50.0703C148.68 50.0078 147.523 49.8672 146.289 49.6484L146.383 59.0469L141.438 59.2344V26.0703C143.094 25.5234 144.68 25.1094 146.195 24.8281C147.727 24.5469 149.078 24.3359 150.25 24.1953C151.641 24.0234 152.93 23.9297 154.117 23.9141C155.18 23.9141 156.305 23.9922 157.492 24.1484C158.711 24.3047 159.945 24.5938 161.195 25.0156C162.445 25.4219 163.656 25.9688 164.828 26.6562C165.984 27.3438 167.008 28.2031 167.898 29.2344C168.773 30.2812 169.461 31.5234 169.961 32.9609C170.461 34.3828 170.672 36.0391 170.594 37.9297ZM154.117 29.0938C153.68 29.0938 153.234 29.1016 152.781 29.1172C152.328 29.1328 151.875 29.1562 151.422 29.1875C150.625 29.25 149.766 29.3672 148.844 29.5391C147.922 29.6953 147.023 29.9297 146.148 30.2422L146.242 44.8438C147.211 45.0312 148.164 45.1562 149.102 45.2188C150.055 45.2812 150.945 45.3125 151.773 45.3125C152.68 45.3125 153.633 45.2656 154.633 45.1719C155.648 45.0938 156.656 44.9453 157.656 44.7266C158.656 44.4922 159.617 44.1719 160.539 43.7656C161.43 43.375 162.242 42.8516 162.977 42.1953C163.68 41.5547 164.242 40.7969 164.664 39.9219C165.086 39.0312 165.297 37.9844 165.297 36.7812C165.297 34.4062 164.289 32.5391 162.273 31.1797C160.258 29.8672 157.539 29.1719 154.117 29.0938ZM198.695 47.6328C198.695 49.6016 198.367 51.4219 197.711 53.0938C197.055 54.7656 196.156 56.2188 195.016 57.4531C193.875 58.6875 192.539 59.6484 191.008 60.3359C189.477 61.0391 187.844 61.3906 186.109 61.3906C182.562 61.3906 179.617 60.125 177.273 57.5938C176.133 56.3906 175.234 54.9453 174.578 53.2578C173.922 51.5703 173.594 49.6953 173.594 47.6328C173.594 45.5547 173.922 43.6719 174.578 41.9844C175.234 40.2812 176.133 38.8281 177.273 37.625C178.398 36.4219 179.719 35.4922 181.234 34.8359C182.75 34.1797 184.375 33.8516 186.109 33.8516C187.844 33.8516 189.477 34.2031 191.008 34.9062C192.539 35.5938 193.875 36.5469 195.016 37.7656C196.156 39 197.055 40.4609 197.711 42.1484C198.367 43.8203 198.695 45.6484 198.695 47.6328ZM193.75 47.5859C193.75 46.4609 193.609 45.3203 193.328 44.1641C193.047 43.0078 192.602 41.9766 191.992 41.0703C191.383 40.1484 190.594 39.4062 189.625 38.8438C188.656 38.2656 187.484 37.9766 186.109 37.9766C184.781 37.9766 183.641 38.2656 182.688 38.8438C181.734 39.4062 180.953 40.1484 180.344 41.0703C179.734 41.9766 179.289 43.0078 179.008 44.1641C178.727 45.3203 178.586 46.4609 178.586 47.5859C178.586 48.7109 178.734 49.8438 179.031 50.9844C179.344 52.1094 179.812 53.1328 180.438 54.0547C181.062 54.9609 181.844 55.7109 182.781 56.3047C183.734 56.8828 184.844 57.1719 186.109 57.1719C187.438 57.1719 188.578 56.8828 189.531 56.3047C190.5 55.7109 191.297 54.9609 191.922 54.0547C192.547 53.1328 193.008 52.1094 193.305 50.9844C193.602 49.8438 193.75 48.7109 193.75 47.5859ZM209.242 35.8203L209.43 25.5547L214.094 25.25L213.93 35.7266L223.023 35.4219L222.672 39.8047L213.883 40.0391L213.695 60.4766L208.75 60.5938L209.148 40.1797L201.039 40.3672L201.133 36.0547L209.242 35.8203ZM233.031 27.7578C233.031 28.6641 232.695 29.4453 232.023 30.1016C231.367 30.7422 230.578 31.0625 229.656 31.0625C228.75 31.0625 227.969 30.7422 227.312 30.1016C226.672 29.4453 226.352 28.6641 226.352 27.7578C226.352 26.8359 226.672 26.0469 227.312 25.3906C227.969 24.7188 228.75 24.3828 229.656 24.3828C230.578 24.3828 231.367 24.7188 232.023 25.3906C232.695 26.0469 233.031 26.8359 233.031 27.7578ZM227.078 36.1953L231.93 36.0078L231.695 47.2578C231.617 50.3516 231.57 52.7812 231.555 54.5469C231.508 56.7031 231.484 58.3984 231.484 59.6328H226.68C226.695 58.7891 226.711 57.8672 226.727 56.8672C226.758 55.8516 226.781 54.7656 226.797 53.6094C226.828 51.5938 226.875 49.1484 226.938 46.2734L227.078 36.1953ZM262.211 47.6328C262.211 49.6016 261.883 51.4219 261.227 53.0938C260.57 54.7656 259.672 56.2188 258.531 57.4531C257.391 58.6875 256.055 59.6484 254.523 60.3359C252.992 61.0391 251.359 61.3906 249.625 61.3906C246.078 61.3906 243.133 60.125 240.789 57.5938C239.648 56.3906 238.75 54.9453 238.094 53.2578C237.438 51.5703 237.109 49.6953 237.109 47.6328C237.109 45.5547 237.438 43.6719 238.094 41.9844C238.75 40.2812 239.648 38.8281 240.789 37.625C241.914 36.4219 243.234 35.4922 244.75 34.8359C246.266 34.1797 247.891 33.8516 249.625 33.8516C251.359 33.8516 252.992 34.2031 254.523 34.9062C256.055 35.5938 257.391 36.5469 258.531 37.7656C259.672 39 260.57 40.4609 261.227 42.1484C261.883 43.8203 262.211 45.6484 262.211 47.6328ZM257.266 47.5859C257.266 46.4609 257.125 45.3203 256.844 44.1641C256.562 43.0078 256.117 41.9766 255.508 41.0703C254.898 40.1484 254.109 39.4062 253.141 38.8438C252.172 38.2656 251 37.9766 249.625 37.9766C248.297 37.9766 247.156 38.2656 246.203 38.8438C245.25 39.4062 244.469 40.1484 243.859 41.0703C243.25 41.9766 242.805 43.0078 242.523 44.1641C242.242 45.3203 242.102 46.4609 242.102 47.5859C242.102 48.7109 242.25 49.8438 242.547 50.9844C242.859 52.1094 243.328 53.1328 243.953 54.0547C244.578 54.9609 245.359 55.7109 246.297 56.3047C247.25 56.8828 248.359 57.1719 249.625 57.1719C250.953 57.1719 252.094 56.8828 253.047 56.3047C254.016 55.7109 254.812 54.9609 255.438 54.0547C256.062 53.1328 256.523 52.1094 256.82 50.9844C257.117 49.8438 257.266 48.7109 257.266 47.5859ZM273.133 60.1016L268.094 60.7344L267.625 47.5859C267.594 46.6953 267.562 45.7422 267.531 44.7266C267.5 43.6953 267.469 42.7266 267.438 41.8203C267.406 40.8984 267.383 40.1719 267.367 39.6406C267.305 37.4375 267.258 35.7812 267.227 34.6719L272.57 34.5781L272.664 41.3281C273.18 40.4375 273.766 39.6016 274.422 38.8203C275.078 38.0234 275.789 37.3203 276.555 36.7109C277.32 36.1016 278.133 35.6094 278.992 35.2344C279.867 34.8594 280.781 34.6406 281.734 34.5781C282.938 34.5 283.977 34.6016 284.852 34.8828C285.727 35.1641 286.477 35.5547 287.102 36.0547C287.727 36.5391 288.242 37.125 288.648 37.8125C289.07 38.5156 289.391 39.2188 289.609 39.9219C289.844 40.6406 290.008 41.3672 290.102 42.1016C290.211 42.8203 290.281 43.4766 290.312 44.0703C290.406 46.7578 290.43 49.4609 290.383 52.1797C290.336 54.8984 290.281 57.7188 290.219 60.6406L285.414 60.4766C285.539 57.9609 285.648 55.4453 285.742 52.9297C285.852 50.4141 285.844 47.875 285.719 45.3125C285.719 44.7656 285.656 44.1406 285.531 43.4375C285.406 42.7188 285.18 42.0078 284.852 41.3047C284.617 40.8203 284.312 40.3906 283.938 40.0156C283.562 39.6562 283.102 39.3828 282.555 39.1953C282.023 39.0078 281.398 38.9688 280.68 39.0781C279.445 39.2656 278.195 40.1641 276.93 41.7734C275.68 43.3359 274.305 45.7031 272.805 48.875L272.969 54.875C272.984 55.625 273 56.2812 273.016 56.8438C273.031 57.4062 273.047 57.8828 273.062 58.2734C273.094 59.1797 273.117 59.7891 273.133 60.1016Z" fill="#F6F9F8"/>
<path d="M44.3655 33.4399H22.0258C22.013 33.6584 22 33.8768 22 34.0985C22 40.2817 27.0124 45.2942 33.1956 45.2942C39.3788 45.2942 44.3913 40.2817 44.3913 34.0985C44.3913 33.8768 44.3783 33.6584 44.3655 33.4399ZM28.9149 37.3914C28.3694 37.3914 27.9271 36.9491 27.9271 36.4035C27.9271 35.8579 28.3693 35.4156 28.9149 35.4156C29.4605 35.4156 29.9028 35.8579 29.9028 36.4035C29.9028 36.9491 29.4605 37.3914 28.9149 37.3914ZM34.8421 41.3427C33.2053 41.3427 31.8785 40.016 31.8785 38.3792C31.8785 36.7424 33.2053 35.4156 34.8421 35.4156C36.4788 35.4156 37.8056 36.7424 37.8056 38.3792C37.8056 40.016 36.4788 41.3427 34.8421 41.3427Z" fill="#F6F9F8"/>
<path d="M37.1689 23.6345V16.9757H38.1349C38.6805 16.9757 39.1228 16.5334 39.1228 15.9878C39.1228 15.4422 38.6805 15 38.1349 15H28.2565C27.7109 15 27.2686 15.4423 27.2686 15.9879C27.2686 16.5335 27.7109 16.9757 28.2565 16.9757H29.2661V23.6345C25.8416 24.9284 23.1867 27.8523 22.3134 31.4643H44.0779C43.2048 27.8522 40.5934 24.9284 37.1689 23.6345ZM32.8664 29.4885C32.3209 29.4885 31.8786 29.0462 31.8786 28.5007C31.8786 27.9551 32.3208 27.5128 32.8664 27.5128C33.412 27.5128 33.8543 27.9551 33.8543 28.5007C33.8542 29.0462 33.412 29.4885 32.8664 29.4885Z" fill="#F6F9F8"/>
<path d="M20 45H12V43H20V45ZM36 44.132V46.086C36 54.3 24 51 24 51C24 51 27.036 63 18.724 63H4V23H32.112L36.066 19H0V67H20.378C26.704 67 40 52.554 40 47.772V40.086L36 44.132Z" fill="#F6F9F8"/>
</svg>
